<svg xmlns="http://www.w3.org/2000/svg" xmlns:xlink="http://www.w3.org/1999/xlink" xmlns:fi="http://pattern.flaticon.com/" x="0" y="0" width="700" height="350" viewBox="0 0 700 350"><rect x="0px" y="0px" width="100%" height="100%" opacity="1" fill="#f0f1f3"/><defs><g transform="matrix(0.1171875 0 0 0.1171875 311 244)" id="L1_14"><path d="M366,0H146c-20.678,0-37.5,16.822-37.5,37.5v437c0,20.678,16.822,37.5,37.5,37.5h220c20.678,0,37.5-16.822,37.5-37.5v-437    C403.5,16.822,386.678,0,366,0z M388.5,407H176c-4.142,0-7.5,3.358-7.5,7.5c0,4.142,3.358,7.5,7.5,7.5h212.5v52.5    c0,12.407-10.093,22.5-22.5,22.5H146c-12.407,0-22.5-10.093-22.5-22.5V422H146c4.142,0,7.5-3.358,7.5-7.5    c0-4.142-3.358-7.5-7.5-7.5h-22.5V75h265V407z M388.5,60h-265V37.5c0-12.407,10.093-22.5,22.5-22.5h220    c12.407,0,22.5,10.093,22.5,22.5V60z" fill="#c2c6d1"/><path d="M286,30h-30c-4.142,0-7.5,3.358-7.5,7.5c0,4.142,3.358,7.5,7.5,7.5h30c4.142,0,7.5-3.358,7.5-7.5    C293.5,33.358,290.142,30,286,30z" fill="#c2c6d1"/><path d="M256,437c-12.407,0-22.5,10.093-22.5,22.5c0,12.407,10.093,22.5,22.5,22.5s22.5-10.093,22.5-22.5    C278.5,447.093,268.407,437,256,437z M256,467c-4.136,0-7.5-3.364-7.5-7.5s3.364-7.5,7.5-7.5s7.5,3.364,7.5,7.5    S260.136,467,256,467z" fill="#c2c6d1"/><circle cx="226" cy="37" r="7" fill="#c2c6d1"/></g><g transform="matrix(0.9375 0 0 0.9375 311 13)" id="L1_17"><path d="m27 23.5c0 1.722 1.691 3.115 4 3.431v.97c-1.394-.152-2.756-.607-3.941-1.397l-.504-.336-1.109 1.664.504.336c1.797 1.198 3.889 1.832 6.05 1.832s4.253-.634 6.051-1.832l.504-.336-1.109-1.664-.504.336c-1.185.79-2.547 1.245-3.941 1.397v-.97c2.309-.316 4-1.709 4-3.431 0-1.963-2.196-3.5-5-3.5s-5.001 1.537-5.001 3.5zm5-1.5c1.717 0 3 .792 3 1.5s-1.283 1.5-3 1.5-3-.792-3-1.5 1.283-1.5 3-1.5z" fill="#c2c6d1"/><ellipse cx="26px" cy="17px" rx="2px" ry="3px" fill="#c2c6d1"/><ellipse cx="38px" cy="17px" rx="2px" ry="3px" fill="#c2c6d1"/><path d="m56 42c-.838 0-1.646.223-2.399.629-1.464-4.319-4.111-8.07-7.734-10.888l-2.24-1.742c2.762-2.464 4.373-5.926 4.373-9.999 0-1.055-.106-2.124-.309-3.19 3.615-.783 6.309-4.013 6.309-7.81 0-4.411-3.589-8-8-8-2.596 0-4.991 1.246-6.483 3.312-2.215-1.438-4.758-2.312-7.517-2.312s-5.302.874-7.518 2.312c-1.492-2.066-3.886-3.312-6.482-3.312-4.411 0-8 3.589-8 8 0 3.797 2.694 7.026 6.308 7.811-.202 1.065-.308 2.135-.308 3.189 0 4.073 1.611 7.535 4.373 9.999l-2.24 1.742c-3.623 2.818-6.27 6.569-7.734 10.888-.753-.406-1.561-.629-2.399-.629-3.925 0-7 4.612-7 10.5 0 5.885 3.071 10.495 7.093 10.495h.006l1.441-.144c5.612-.562 11.003-2.561 15.636-5.768 1.944.602 4.215.917 6.824.917s4.88-.315 6.824-.917c4.633 3.208 10.024 5.206 15.637 5.768l1.539.149c3.925 0 7-4.612 7-10.5s-3.075-10.5-7-10.5zm-11.36-8.681c3.498 2.722 6.006 6.391 7.289 10.621-.992 1.055-1.798 2.493-2.312 4.211l-2.711-.903c.056-.564.094-1.142.094-1.748 0-5.117-2.088-10.301-5.526-13.929.172-.103.338-.212.505-.322zm1.36-30.319c3.309 0 6 2.691 6 6 0 2.87-2.052 5.309-4.794 5.872-1.08-3.587-3.214-6.978-6.076-9.378 1.119-1.556 2.919-2.494 4.87-2.494zm-34 6c0-3.309 2.691-6 6-6 1.951 0 3.751.939 4.87 2.494-2.862 2.4-4.996 5.791-6.076 9.378-2.742-.563-4.794-3.002-4.794-5.872zm6 11c0-7.399 6.116-16 14-16s14 8.601 14 16c0 8.289-7.031 12-14 12s-14-3.711-14-12zm1.36 13.319 2.661-2.07c.167.109.333.219.505.322-3.432 3.63-5.526 8.84-5.526 13.929 0 .606.038 1.184.094 1.748l-2.711.903c-.514-1.718-1.32-3.155-2.312-4.211 1.283-4.229 3.791-7.899 7.289-10.621zm-16.36 19.181c0-.822.076-1.619.211-2.377 2.73.562 4.789 2.983 4.789 5.877v5c-2.71 0-5-3.893-5-8.5zm7 8.273v-4.773c0-3.82-2.693-7.019-6.279-7.809.884-2.484 2.487-4.191 4.279-4.191 2.055 0 3.99 2.323 4.704 5.649.06.278.235.518.482.658.246.142.542.171.812.08l3.442-1.147c.781 3.151 2.616 5.487 5.477 6.946-3.907 2.462-8.327 4.029-12.917 4.587zm9-15.273c0-4.799 2.07-9.697 5.411-12.97 2.211.945 4.769 1.47 7.589 1.47 2.819 0 5.375-.525 7.585-1.468 3.348 3.271 5.415 8.141 5.415 12.968 0 7.065-4.252 10.5-13 10.5s-13-3.435-13-10.5zm27.56 3.741 3.442 1.147c.269.091.565.061.812-.08s.422-.38.482-.658c.714-3.327 2.649-5.65 4.704-5.65 1.792 0 3.395 1.707 4.279 4.191-3.586.79-6.279 3.989-6.279 7.809v4.773c-4.591-.559-9.01-2.125-12.917-4.587 2.861-1.458 4.697-3.795 5.477-6.945zm9.539 11.764-.099-.01v-4.995c0-2.894 2.059-5.315 4.789-5.877.135.758.211 1.555.211 2.377 0 4.607-2.29 8.5-4.901 8.505z" fill="#c2c6d1"/><path d="m32 42c-5.047 0-9 2.636-9 6s3.953 6 9 6 9-2.636 9-6-3.953-6-9-6zm0 10c-3.794 0-7-1.832-7-4s3.206-4 7-4 7 1.832 7 4-3.206 4-7 4z" fill="#c2c6d1"/></g><g transform="matrix(0.1171875 0 0 0.1171875 139 15)" id="L1_18"><path d="M476,48H36A28.031,28.031,0,0,0,8,76V372a28.031,28.031,0,0,0,28,28H198.24l-4.8,24H160a8,8,0,0,0-8,8v24a8,8,0,0,0,8,8H352a8,8,0,0,0,8-8V432a8,8,0,0,0-8-8H318.56l-4.8-24H476a28.031,28.031,0,0,0,28-28V76A28.031,28.031,0,0,0,476,48ZM344,440v8H168v-8ZM209.76,424l4.8-24h82.88l4.8,24ZM488,372a12.01,12.01,0,0,1-12,12H36a12.01,12.01,0,0,1-12-12V352H488Zm0-36H24V76A12.01,12.01,0,0,1,36,64H476a12.01,12.01,0,0,1,12,12Z" fill="#c2c6d1"/><path d="M264,360H248a8,8,0,0,0,0,16h16a8,8,0,0,0,0-16Z" fill="#c2c6d1"/></g><g transform="matrix(0.1171918511390686 0 0 0.1171918511390686 308 125)" id="L1_39"><path d="m367.58 89.293c-4.452 4.452-6.904 10.371-6.904 16.667s2.452 12.215 6.903 16.667l54.487 54.487c4.452 4.452 10.371 6.903 16.666 6.903 6.296 0 12.215-2.452 16.666-6.903 4.452-4.452 6.904-10.371 6.904-16.667s-2.452-12.215-6.903-16.667l-54.487-54.488c-9.189-9.189-24.144-9.187-33.332.001zm77.213 65.094c1.618 1.618 2.51 3.771 2.51 6.06s-.892 4.441-2.511 6.06c-1.618 1.619-3.771 2.51-6.06 2.51s-4.441-.891-6.06-2.51l-54.487-54.488c-1.618-1.618-2.51-3.771-2.51-6.06s.892-4.441 2.511-6.06c1.67-1.671 3.864-2.506 6.06-2.506 2.194 0 4.39.835 6.06 2.506z" fill="#c2c6d1"/><path d="m510.158 227.367c-3.136-15.493-14.321-27.92-28.629-33.195 35.481-59.195 40.401-114.629 12.015-143.016-12.452-12.451-30.486-18.826-52.191-18.426-4.141.076-7.437 3.495-7.361 7.636.075 4.095 3.418 7.363 7.496 7.363.047 0 .094 0 .141-.001 17.757-.329 31.672 4.397 41.309 14.034 14.903 14.903 15.305 37.546 13.019 53.917-3.234 23.152-13.708 49.261-30.322 75.731-43.257-.825-86.7-1.395-130.214-1.707-.283-25.544-1.863-51.399-4.736-76.976-.393-3.492-3.157-6.244-6.651-6.62-2.237-.24-4.477-.454-6.715-.676 31.661-26.773 65.51-45.632 96.668-53.671 4.011-1.035 6.423-5.125 5.388-9.136-1.034-4.011-5.127-6.424-9.136-5.388-11.94 3.081-24.22 7.625-36.599 13.482 2.411-10.483 3.56-23.05-1.042-32.427-2.772-5.651-7.362-9.504-13.272-11.143-8.757-2.426-22.36-1.152-37.473 18.703-.731.961-1.438 1.929-2.118 2.892-.082-.285-.165-.569-.251-.854-2.97-9.882-10.734-26.461-29.384-26.461-6.477 0-12.124 2.582-16.334 7.466-5.495 6.377-7.899 16.282-8.762 26.154-6.563-8.632-14.514-15.57-23.114-15.57-5.587 0-10.682 2.846-14.345 8.014-9.65 13.614-9.79 43.118-.826 74.03-2.245.028-4.489.079-6.733.126-14.694-17.146-32.456-28.946-40.225-33.668v-16.44c3.521-.617 6.198-3.682 6.198-7.38v-21.175c0-11.412-9.284-20.696-20.696-20.696h-46.638c-11.412 0-20.696 9.284-20.696 20.696v21.175c0 3.698 2.679 6.763 6.2 7.38l-.006 16.437c-10.126 6.15-37.176 24.277-52.315 50.598-3.088 5.346-4.518 11.508-4.131 17.833.726 11.527 2.529 33.937 6.448 54.864-3.071.056-6.145.107-9.214.166-20.832.393-38.954 15.504-43.088 35.926-2.43 11.965-2.43 24.099-.001 36.058 3.034 15.01 13.667 27.398 27.711 32.867.824 15.267 2.235 36.979 4.545 61.655-6.191 17.535-12.255 35.076-18.137 52.581-5.061 15.079 1.715 31.814 15.771 38.932 5.348 2.699 10.971 4.794 16.726 6.25 5.379 15.253 14.979 28.412 27.987 38.247 14.364 10.86 31.48 16.6 49.498 16.6h260.137c18.018 0 35.134-5.74 49.498-16.6 13.009-9.836 22.609-22.996 27.988-38.251 5.782-1.469 11.404-3.566 16.728-6.257 14.059-7.105 20.837-23.842 15.767-38.931-5.887-17.516-11.949-35.056-18.135-52.578 2.309-24.675 3.72-46.386 4.544-61.652 14.06-5.482 24.68-17.863 27.709-32.856 2.429-11.967 2.429-24.101-.001-36.062zm-193.732-106.965c2.4 23.03 3.734 46.25 3.996 69.213-55.63-.323-111.351-.232-166.925.282.255-23.052 1.59-46.367 3.999-69.496 52.76-5.264 106.167-5.264 158.93.001zm-76.644-84.236c.546-.77 1.355-1.688 2.108-1.688 5.4 0 16.726 15.406 24.781 33.704 1.326 3.242 4.742 5.148 8.222 4.545 3.594-.624 6.218-3.742 6.218-7.39 0-.456-.043-.913-.127-1.363-3.749-25.343.418-40.964 4.146-45.289 1.364-1.583 2.851-2.258 4.971-2.258 17.29 0 17.869 34.402 17.87 34.74 0 3.545 2.483 6.603 5.951 7.335 3.474.733 6.978-1.066 8.411-4.309 5.362-12.129 20.465-36.057 32.983-32.589 1.782.494 2.923 1.48 3.813 3.296 3.191 6.502 1.483 20.883-4.104 35.577-19.835 11.403-39.618 25.989-58.378 43.176-18.05-1.323-36.153-2.045-54.261-2.165-10.45-32.762-8.002-57.706-2.604-65.322zm-75.021 28.617h-45.636l.005-13.123h45.632v13.123zm-46.136-47.495h46.638c3.141 0 5.696 2.555 5.696 5.696v13.673h-58.03v-13.672c0-3.141 2.555-5.697 5.696-5.697zm-49.712 171.46c-3.803-20.195-5.558-42.052-6.265-53.269-.205-3.362.538-6.613 2.156-9.414 14.305-24.872 41.953-42.233 48.823-46.283h56.63c4.383 2.58 17.247 10.589 29.7 22.525-16.73.758-33.432 2.014-50.066 3.801-3.495.375-6.26 3.127-6.652 6.62-2.885 25.696-4.466 51.667-4.739 77.321-23.028.245-46.029.555-68.981.944-.246-.732-.46-1.478-.606-2.245zm-24.188 110.597c.063.002.125.008.188.009l.24.004c3.363.063 6.726.118 10.09.178-3.006 8.08-5.991 16.169-8.941 24.27-.661-9.137-1.177-17.38-1.577-24.461zm341.334 196.208h-260.137c-26.485 0-50.468-15.897-61.228-39.613 9.853-2.457 18.397-9.549 22.319-19.551 4.322-11.017 8.249-21.167 12.006-31.028 1.475-3.871-.467-8.204-4.338-9.679-3.871-1.474-8.204.467-9.679 4.338-3.74 9.816-7.65 19.92-11.954 30.893-3.108 7.927-11.58 12.468-19.726 10.554-5.118-1.193-10.115-3.01-14.843-5.397-7.451-3.773-11.027-12.704-8.319-20.77 19.229-57.222 40.204-114.849 62.341-171.278 3.113-7.929 11.591-12.473 19.715-10.57 5.168 1.213 10.166 3.033 14.863 5.413 7.453 3.764 11.026 12.691 8.312 20.766-12.584 37.444-25.98 75.254-39.818 112.38-1.447 3.881.527 8.2 4.408 9.647 3.882 1.448 8.2-.527 9.647-4.408 9.43-25.301 18.648-50.918 27.554-76.522 39.436.428 79.118.649 118.808.649 39.693 0 79.38-.22 118.819-.649 15.833 45.521 32.637 91.004 50.158 135.654 3.923 10.002 12.468 17.094 22.322 19.552-10.758 23.719-34.744 39.619-61.23 39.619zm87.448-59.495c-4.716 2.383-9.715 4.203-14.859 5.408-8.127 1.905-16.605-2.636-19.717-10.564-22.092-56.3-43.066-113.927-62.341-171.28-2.713-8.072.861-17 8.314-20.766 4.714-2.383 9.714-4.203 14.858-5.408 1.247-.292 2.502-.433 3.744-.433 6.859 0 13.339 4.285 15.973 10.997 22.092 56.3 43.066 113.927 62.341 171.281 2.713 8.072-.861 16.999-8.313 20.765zm-16.763-136.522c3.358-.06 6.717-.115 10.075-.178l.268-.005c.057-.001.114-.007.171-.008-.401 7.078-.917 15.318-1.577 24.451-2.95-8.1-5.934-16.185-8.937-24.26zm38.712-39.086c-2.268 11.222-10.916 20.257-22.078 23.027-2.104.536-4.328.832-6.59.879l-.249.005c-5.126.096-10.251.185-15.377.272-5.82-15.441-11.725-30.822-17.72-46.1-5.813-14.819-21.769-23.283-37.102-19.689-6.303 1.477-12.428 3.706-18.203 6.626-14.059 7.105-20.837 23.842-15.767 38.931 2.394 7.123 4.814 14.25 7.259 21.378-75.472.784-151.813.784-227.285 0 2.446-7.13 4.874-14.257 7.263-21.368 5.075-15.094-1.704-31.832-15.759-38.931-5.752-2.914-11.877-5.145-18.209-6.632-15.333-3.591-31.284 4.875-37.103 19.694-5.997 15.285-11.9 30.663-17.715 46.092-5.13-.087-10.261-.177-15.391-.272l-.221-.004c-2.281-.048-4.503-.344-6.651-.891-11.118-2.759-19.768-11.794-22.037-23.023-2.027-9.985-2.027-20.11.001-30.099 2.752-13.592 14.81-23.647 28.673-23.909 139.873-2.685 281.715-2.685 421.59 0 13.861.262 25.919 10.317 28.672 23.914 2.029 9.983 2.029 20.108-.001 30.1z" fill="#c2c6d1"/><path d="m156.855 327.051h-.506c-17.176.041-31.037 13.598-31.555 30.864-.609 20.335-.609 40.957 0 61.292.518 17.265 14.378 30.822 31.561 30.864h.5c17.176-.042 31.037-13.598 31.555-30.864.609-20.335.609-40.957 0-61.292-.519-17.267-14.379-30.823-31.555-30.864zm16.561 91.706c-.269 8.974-7.715 16.292-16.591 16.313h-.44c-8.883-.021-16.329-7.34-16.598-16.313-.601-20.037-.601-40.356 0-60.393.269-8.974 7.715-16.292 16.603-16.313h.423.005c8.883.021 16.329 7.339 16.598 16.313.601 20.037.601 40.356 0 60.393z" fill="#c2c6d1"/><path d="m256.243 327.051h-.506c-17.176.041-31.037 13.598-31.555 30.864-.609 20.335-.609 40.957 0 61.292.518 17.265 14.378 30.822 31.561 30.864h.5c17.177-.042 31.037-13.599 31.555-30.864.609-20.335.609-40.957 0-61.292-.518-17.266-14.378-30.823-31.555-30.864zm16.561 91.706c-.269 8.974-7.714 16.292-16.59 16.313h-.44c-8.883-.021-16.329-7.34-16.598-16.313-.601-20.037-.601-40.356 0-60.393.269-8.974 7.715-16.292 16.603-16.313h.423.005c8.883.021 16.328 7.339 16.597 16.313.601 20.037.601 40.356 0 60.393z" fill="#c2c6d1"/><path d="m355.631 327.051h-.505c-17.177.041-31.037 13.598-31.555 30.864-.609 20.335-.609 40.957 0 61.292.518 17.265 14.378 30.823 31.561 30.864h.5c17.177-.042 31.037-13.599 31.555-30.864.609-20.335.609-40.957 0-61.292-.518-17.266-14.378-30.823-31.556-30.864zm16.562 91.706c-.269 8.974-7.714 16.292-16.591 16.313h-.439c-8.883-.021-16.328-7.34-16.597-16.313-.602-20.037-.602-40.356 0-60.393.269-8.974 7.714-16.292 16.602-16.313h.423.006c8.883.021 16.328 7.339 16.597 16.313.6 20.037.6 40.356-.001 60.393z" fill="#c2c6d1"/></g><g transform="matrix(0.1171875 0 0 0.1171875 135 249.99999772548688)" id="L1_40"><path d="m299.087 382.153h-211.587c-4.142 0-7.5 3.358-7.5 7.5s3.358 7.5 7.5 7.5h211.587c6.776 0 12.5 7.098 12.5 15.5 0 4.423-1.176 9.5-10.348 9.5h-56.305c-4.142 0-7.5 3.358-7.5 7.5s3.358 7.5 7.5 7.5h56.305c15.398 0 25.348-9.617 25.348-24.5 0-16.818-12.337-30.5-27.5-30.5z" fill="#c2c6d1"/><path d="m486.174 146.321c-3.516-3.941-7.04-7.258-10.317-10.008.72-1.151 1.143-2.508 1.143-3.966v-75c0-12.407-10.093-22.5-22.5-22.5h-60c-12.407 0-22.5 10.093-22.5 22.5v75c0 1.458.423 2.814 1.143 3.966-3.277 2.75-6.801 6.067-10.317 10.008-4.405 4.937-9.126 11.25-13.311 19.037-7.103-13.205-16.041-22.677-23.649-29.058.715-1.149 1.135-2.5 1.135-3.952v-75c0-12.407-10.093-22.5-22.5-22.5h-60c-12.407 0-22.5 10.093-22.5 22.5v75c0 1.441.414 2.782 1.118 3.925-13.57 11.352-31.381 32.479-35.334 67.053-.47 4.115 2.484 7.833 6.6 8.304.29.033.577.049.861.049 3.761 0 7.005-2.823 7.442-6.648 4.917-43.006 34.593-61.456 41.465-65.182h60.682c5.523 3.031 26.749 16.231 36.8 44.659-2.838 9.511-4.634 20.424-4.634 32.841v21.316c0 4.142 3.358 7.5 7.5 7.5s7.5-3.358 7.5-7.5v-21.316c0-51.849 34.62-73.423 42.15-77.5h60.681c7.31 4.025 42.169 25.939 42.169 77.5v121.276c0 4.142 3.358 7.5 7.5 7.5s7.5-3.358 7.5-7.5v-121.278c-.001-34.781-14.045-57.822-25.827-71.026zm-249.174-21.474v-42.046c2.729.549 5.871.934 9.383.934 5.697 0 12.334-.999 19.602-3.888h46.015v45zm7.5-75h60c4.136 0 7.5 3.364 7.5 7.5v7.5h-47.5c-1.015 0-2.019.206-2.951.605-11.115 4.756-19.904 3.394-24.549 1.948v-10.053c0-4.136 3.364-7.5 7.5-7.5zm142.5 75v-42.046c2.729.549 5.871.934 9.383.934 5.697 0 12.334-.999 19.602-3.888h46.015v45zm7.5-75h60c4.136 0 7.5 3.364 7.5 7.5v7.5h-47.5c-1.015 0-2.019.206-2.951.605-11.114 4.756-19.904 3.394-24.549 1.948v-10.053c0-4.136 3.364-7.5 7.5-7.5z" fill="#c2c6d1"/><path d="m504.5 361.124c-4.142 0-7.5 3.358-7.5 7.5v56.029c0 4.136-3.364 7.5-7.5 7.5h-124.555c1.081-4.885 1.642-10.062 1.642-15.5 0-15.865-5.256-31.901-14.587-45.021v-102.969c0-4.142-3.358-7.5-7.5-7.5s-7.5 3.358-7.5 7.5v87.282c-6.127-4.732-12.875-8.298-20.031-10.621 2.329-4.308 3.618-9.623 3.618-15.671 0-15.678-11.094-27.5-25.805-27.5h-5.518c1.924-3.753 3.018-8 3.018-12.5v-16.596c0-17.741-12.093-32.799-29.409-36.618-19.207-4.237-47.834-9.287-75.145-9.287-27.31 0-55.938 5.05-75.144 9.286-17.316 3.819-29.41 18.877-29.41 36.618v16.596c0 4.884 1.286 9.471 3.528 13.451-21.714 2.959-41.786 12.794-57.579 28.436-18.507 18.333-29.123 43.159-29.123 68.114 0 21.668 7.818 41.501 22.013 55.844 13.821 13.965 32.398 21.656 52.312 21.656h229.067c18.39 0 34.084-5.562 45.385-16.085 4.34-4.041 7.915-8.709 10.696-13.915h130.027c12.407 0 22.5-10.093 22.5-22.5v-56.029c0-4.143-3.358-7.5-7.5-7.5zm-201.108 101.029h-229.068c-33.82 0-59.324-26.869-59.324-62.5 0-20.979 8.996-41.921 24.68-57.455 16.307-16.15 37.968-25.045 60.996-25.045h32.723c4.142 0 7.5-3.358 7.5-7.5s-3.358-7.5-7.5-7.5h-22.723c-6.893 0-12.5-5.607-12.5-12.5v-16.596c0-10.645 7.254-19.679 17.641-21.97 18.478-4.076 45.954-8.934 71.913-8.934s53.435 4.858 71.914 8.935c10.386 2.291 17.64 11.325 17.64 21.97v16.596c0 6.893-5.607 12.5-12.5 12.5h-101.385c-4.142 0-7.5 3.358-7.5 7.5s3.358 7.5 7.5 7.5h131.383c7.423 0 10.805 6.479 10.805 12.5 0 5.703-1.501 12.5-8.652 12.5h-202.847c-12.913 0-26.25 5.328-36.59 14.618-11.284 10.135-17.498 23.589-17.498 37.881 0 20.102 16.802 42.5 40.912 42.5h134.022c4.142 0 7.5-3.358 7.5-7.5s-3.358-7.5-7.5-7.5h-134.022c-14.831 0-25.912-14.519-25.912-27.5 0-21.463 20.637-37.5 39.088-37.5h202.847c32.692 0 54.652 30.766 54.652 59.5 0 28.065-18.467 45.5-48.195 45.5z" fill="#c2c6d1"/></g><g transform="matrix(0.11718795448541641 0 0 0.11718795448541641 140 133.99999622343512)" id="L1_41"><path d="m97.097 297.684c-4.765-.61-8.572 2.685-9.111 6.899-.538 4.202 2.3 8.36 7.08 8.972 4.392.56 8.39-2.544 8.951-6.92.56-4.382-2.537-8.39-6.92-8.951z" fill="#c2c6d1"/><path d="m511.998 320.035c0-39.865-32.404-72.036-71.997-72.036-25.181 0-26.523-2.733-56.851-20.424 3.768-7.551-5.24-15.011-11.949-9.976l-2.254 1.691-26.068-15.207c4.444-7.491-4.69-15.729-11.678-10.484l-2.754 2.066-25.882-15.098c5.184-7.45-4.157-16.377-11.364-10.968l-3.254 2.44-55.276-32.244c-12.625-7.366-29.006-3.763-37.259 8.647l-2.733 4.109c-6.25 9.388-6.245 21.518.011 30.902l3.628 5.442-25.469 12.734c-15.934 7.967-35.51 2.954-45.541-12.095l-14.234-21.352c-15.155-22.729-49.077-21.213-62.154 2.757-18.038 33.07-17.909 32.674-20.302 37.699-11.539 22.737-17.572 55.203-12.863 86.435l-15.182 37.955c-1.482 3.705-.007 7.937 3.459 9.917 37.842 21.624 80.882 33.054 124.467 33.054h308.905c32.401 0 62.772-19.996 74.195-53.504.23-.699.395-1.611.399-2.46zm-16.275-5.468c-24.446 8.698-56.544 13.432-82.802 13.432-39.557 0-79.35-1.791-118.929-5.322l34.578-46.102c33.067 12.887 67.829 19.424 103.431 19.424 15.582 0 27.091-14.631 23.282-29.864 21.789 6.192 38.197 25.265 40.44 48.432zm-289.725-153.149c3.168-4.763 5.574-9.419 12.633-9.419 4.573 0 2.67-.313 55.424 30.459l-14.853 11.14c-3.535 2.651-4.251 7.666-1.601 11.2 2.647 3.529 7.663 4.254 11.2 1.601l20.254-15.19 25.5 14.875-15.354 11.515c-3.535 2.651-4.251 7.666-1.601 11.2 2.647 3.529 7.663 4.254 11.2 1.601l20.754-15.565 25.5 14.875-15.854 11.89c-3.535 2.651-4.251 7.666-1.601 11.2 2.647 3.529 7.663 4.254 11.2 1.601l21.254-15.94 26.97 15.732c11.319 6.602 24.386 9.808 34.976 9.808 4.436 0 8 3.564 8 8s-3.564 8-8 8c-56.442 0-110.497-17.676-155.276-49.286l-62.894-44.392-7.828-11.742c-2.663-3.999-2.665-9.165-.003-13.163zm-143.032 17.186c7.323-13.427 26.314-14.261 34.795-1.544l14.234 21.352c14.551 21.829 42.928 29.069 66.01 17.53l29.293-14.646c64.027 45.191 75.523 54.865 106.098 68.848l-38.063 50.748c-9.444-.976-18.869-2.061-28.275-3.235-2.607-14.403-10.414-26.593-20.799-34.893-14.779-11.829-31.305-21.109-49.114-27.582l-130.134-47.327zm374.439 181.395h-308.906c-38.486 0-76.522-9.521-110.446-27.589l11.063-27.657 34.037 4.546c4.394.585 8.405-2.505 8.988-6.871.585-4.379-2.491-8.403-6.871-8.988l-34.209-4.569c-2.726-22.536.413-45.556 8.984-66.524l131.635 47.872c16.168 5.876 31.168 14.3 44.588 25.041 6.236 4.983 11.223 11.961 13.809 20.172-.103-.014-102.218-13.692-103.145-13.692-4.418 0-7.995 3.582-7.995 8 0 4.098 3.086 7.476 7.058 7.944 108.195 14.437 178.281 26.315 286.928 26.315 24.091 0 51.872-3.697 75.276-10.277-11.441 16.198-30.202 26.277-50.794 26.277z" fill="#c2c6d1"/></g></defs><g fi:class="KUsePattern"><pattern id="pattern_L1_14" width="350" height="350" patternUnits="userSpaceOnUse"><use xlink:href="#L1_14" x="-350" y="-350"/><use xlink:href="#L1_14" x="0" y="-350"/><use xlink:href="#L1_14" x="350" y="-350"/><use xlink:href="#L1_14" x="-350" y="0"/><use xlink:href="#L1_14" x="0" y="0"/><use xlink:href="#L1_14" x="350" y="0"/><use xlink:href="#L1_14" x="-350" y="350"/><use xlink:href="#L1_14" x="0" y="350"/><use xlink:href="#L1_14" x="350" y="350"/></pattern><rect x="0" y="0" width="100%" height="100%" fill="url(#pattern_L1_14)"/></g><g fi:class="KUsePattern"><pattern id="pattern_L1_17" width="350" height="350" patternUnits="userSpaceOnUse"><use xlink:href="#L1_17" x="-350" y="-350"/><use xlink:href="#L1_17" x="0" y="-350"/><use xlink:href="#L1_17" x="350" y="-350"/><use xlink:href="#L1_17" x="-350" y="0"/><use xlink:href="#L1_17" x="0" y="0"/><use xlink:href="#L1_17" x="350" y="0"/><use xlink:href="#L1_17" x="-350" y="350"/><use xlink:href="#L1_17" x="0" y="350"/><use xlink:href="#L1_17" x="350" y="350"/></pattern><rect x="0" y="0" width="100%" height="100%" fill="url(#pattern_L1_17)"/></g><g fi:class="KUsePattern"><pattern id="pattern_L1_18" width="350" height="350" patternUnits="userSpaceOnUse"><use xlink:href="#L1_18" x="-350" y="-350"/><use xlink:href="#L1_18" x="0" y="-350"/><use xlink:href="#L1_18" x="350" y="-350"/><use xlink:href="#L1_18" x="-350" y="0"/><use xlink:href="#L1_18" x="0" y="0"/><use xlink:href="#L1_18" x="350" y="0"/><use xlink:href="#L1_18" x="-350" y="350"/><use xlink:href="#L1_18" x="0" y="350"/><use xlink:href="#L1_18" x="350" y="350"/></pattern><rect x="0" y="0" width="100%" height="100%" fill="url(#pattern_L1_18)"/></g><g fi:class="KUsePattern"><pattern id="pattern_L1_39" width="350" height="350" patternUnits="userSpaceOnUse"><use xlink:href="#L1_39" x="-350" y="-350"/><use xlink:href="#L1_39" x="0" y="-350"/><use xlink:href="#L1_39" x="350" y="-350"/><use xlink:href="#L1_39" x="-350" y="0"/><use xlink:href="#L1_39" x="0" y="0"/><use xlink:href="#L1_39" x="350" y="0"/><use xlink:href="#L1_39" x="-350" y="350"/><use xlink:href="#L1_39" x="0" y="350"/><use xlink:href="#L1_39" x="350" y="350"/></pattern><rect x="0" y="0" width="100%" height="100%" fill="url(#pattern_L1_39)"/></g><g fi:class="KUsePattern"><pattern id="pattern_L1_40" width="350" height="350" patternUnits="userSpaceOnUse"><use xlink:href="#L1_40" x="-350" y="-350"/><use xlink:href="#L1_40" x="0" y="-350"/><use xlink:href="#L1_40" x="350" y="-350"/><use xlink:href="#L1_40" x="-350" y="0"/><use xlink:href="#L1_40" x="0" y="0"/><use xlink:href="#L1_40" x="350" y="0"/><use xlink:href="#L1_40" x="-350" y="350"/><use xlink:href="#L1_40" x="0" y="350"/><use xlink:href="#L1_40" x="350" y="350"/></pattern><rect x="0" y="0" width="100%" height="100%" fill="url(#pattern_L1_40)"/></g><g fi:class="KUsePattern"><pattern id="pattern_L1_41" width="350" height="350" patternUnits="userSpaceOnUse"><use xlink:href="#L1_41" x="-350" y="-350"/><use xlink:href="#L1_41" x="0" y="-350"/><use xlink:href="#L1_41" x="350" y="-350"/><use xlink:href="#L1_41" x="-350" y="0"/><use xlink:href="#L1_41" x="0" y="0"/><use xlink:href="#L1_41" x="350" y="0"/><use xlink:href="#L1_41" x="-350" y="350"/><use xlink:href="#L1_41" x="0" y="350"/><use xlink:href="#L1_41" x="350" y="350"/></pattern><rect x="0" y="0" width="100%" height="100%" fill="url(#pattern_L1_41)"/></g></svg>