<svg xmlns="http://www.w3.org/2000/svg" xmlns:xlink="http://www.w3.org/1999/xlink" xmlns:fi="http://pattern.flaticon.com/" x="0" y="0" width="700" height="350" viewBox="0 0 700 350"><rect x="0px" y="0px" width="100%" height="100%" opacity="1" fill="#f0f1f3"/><defs><g transform="matrix(0.1171875 0 0 0.1171875 186 128.99999393463168)" id="L1_2"><path d="m299.087 382.153h-211.587c-4.142 0-7.5 3.358-7.5 7.5s3.358 7.5 7.5 7.5h211.587c6.776 0 12.5 7.098 12.5 15.5 0 4.423-1.176 9.5-10.348 9.5h-56.305c-4.142 0-7.5 3.358-7.5 7.5s3.358 7.5 7.5 7.5h56.305c15.398 0 25.348-9.617 25.348-24.5 0-16.818-12.337-30.5-27.5-30.5z"/><path d="m486.174 146.321c-3.516-3.941-7.04-7.258-10.317-10.008.72-1.151 1.143-2.508 1.143-3.966v-75c0-12.407-10.093-22.5-22.5-22.5h-60c-12.407 0-22.5 10.093-22.5 22.5v75c0 1.458.423 2.814 1.143 3.966-3.277 2.75-6.801 6.067-10.317 10.008-4.405 4.937-9.126 11.25-13.311 19.037-7.103-13.205-16.041-22.677-23.649-29.058.715-1.149 1.135-2.5 1.135-3.952v-75c0-12.407-10.093-22.5-22.5-22.5h-60c-12.407 0-22.5 10.093-22.5 22.5v75c0 1.441.414 2.782 1.118 3.925-13.57 11.352-31.381 32.479-35.334 67.053-.47 4.115 2.484 7.833 6.6 8.304.29.033.577.049.861.049 3.761 0 7.005-2.823 7.442-6.648 4.917-43.006 34.593-61.456 41.465-65.182h60.682c5.523 3.031 26.749 16.231 36.8 44.659-2.838 9.511-4.634 20.424-4.634 32.841v21.316c0 4.142 3.358 7.5 7.5 7.5s7.5-3.358 7.5-7.5v-21.316c0-51.849 34.62-73.423 42.15-77.5h60.681c7.31 4.025 42.169 25.939 42.169 77.5v121.276c0 4.142 3.358 7.5 7.5 7.5s7.5-3.358 7.5-7.5v-121.278c-.001-34.781-14.045-57.822-25.827-71.026zm-249.174-21.474v-42.046c2.729.549 5.871.934 9.383.934 5.697 0 12.334-.999 19.602-3.888h46.015v45zm7.5-75h60c4.136 0 7.5 3.364 7.5 7.5v7.5h-47.5c-1.015 0-2.019.206-2.951.605-11.115 4.756-19.904 3.394-24.549 1.948v-10.053c0-4.136 3.364-7.5 7.5-7.5zm142.5 75v-42.046c2.729.549 5.871.934 9.383.934 5.697 0 12.334-.999 19.602-3.888h46.015v45zm7.5-75h60c4.136 0 7.5 3.364 7.5 7.5v7.5h-47.5c-1.015 0-2.019.206-2.951.605-11.114 4.756-19.904 3.394-24.549 1.948v-10.053c0-4.136 3.364-7.5 7.5-7.5z"/><path d="m504.5 361.124c-4.142 0-7.5 3.358-7.5 7.5v56.029c0 4.136-3.364 7.5-7.5 7.5h-124.555c1.081-4.885 1.642-10.062 1.642-15.5 0-15.865-5.256-31.901-14.587-45.021v-102.969c0-4.142-3.358-7.5-7.5-7.5s-7.5 3.358-7.5 7.5v87.282c-6.127-4.732-12.875-8.298-20.031-10.621 2.329-4.308 3.618-9.623 3.618-15.671 0-15.678-11.094-27.5-25.805-27.5h-5.518c1.924-3.753 3.018-8 3.018-12.5v-16.596c0-17.741-12.093-32.799-29.409-36.618-19.207-4.237-47.834-9.287-75.145-9.287-27.31 0-55.938 5.05-75.144 9.286-17.316 3.819-29.41 18.877-29.41 36.618v16.596c0 4.884 1.286 9.471 3.528 13.451-21.714 2.959-41.786 12.794-57.579 28.436-18.507 18.333-29.123 43.159-29.123 68.114 0 21.668 7.818 41.501 22.013 55.844 13.821 13.965 32.398 21.656 52.312 21.656h229.067c18.39 0 34.084-5.562 45.385-16.085 4.34-4.041 7.915-8.709 10.696-13.915h130.027c12.407 0 22.5-10.093 22.5-22.5v-56.029c0-4.143-3.358-7.5-7.5-7.5zm-201.108 101.029h-229.068c-33.82 0-59.324-26.869-59.324-62.5 0-20.979 8.996-41.921 24.68-57.455 16.307-16.15 37.968-25.045 60.996-25.045h32.723c4.142 0 7.5-3.358 7.5-7.5s-3.358-7.5-7.5-7.5h-22.723c-6.893 0-12.5-5.607-12.5-12.5v-16.596c0-10.645 7.254-19.679 17.641-21.97 18.478-4.076 45.954-8.934 71.913-8.934s53.435 4.858 71.914 8.935c10.386 2.291 17.64 11.325 17.64 21.97v16.596c0 6.893-5.607 12.5-12.5 12.5h-101.385c-4.142 0-7.5 3.358-7.5 7.5s3.358 7.5 7.5 7.5h131.383c7.423 0 10.805 6.479 10.805 12.5 0 5.703-1.501 12.5-8.652 12.5h-202.847c-12.913 0-26.25 5.328-36.59 14.618-11.284 10.135-17.498 23.589-17.498 37.881 0 20.102 16.802 42.5 40.912 42.5h134.022c4.142 0 7.5-3.358 7.5-7.5s-3.358-7.5-7.5-7.5h-134.022c-14.831 0-25.912-14.519-25.912-27.5 0-21.463 20.637-37.5 39.088-37.5h202.847c32.692 0 54.652 30.766 54.652 59.5 0 28.065-18.467 45.5-48.195 45.5z"/></g><g transform="matrix(0.1171875 0 0 0.1171875 308 130)" id="L1_3"><path d="M366,0H146c-20.678,0-37.5,16.822-37.5,37.5v437c0,20.678,16.822,37.5,37.5,37.5h220c20.678,0,37.5-16.822,37.5-37.5v-437    C403.5,16.822,386.678,0,366,0z M388.5,407H176c-4.142,0-7.5,3.358-7.5,7.5c0,4.142,3.358,7.5,7.5,7.5h212.5v52.5    c0,12.407-10.093,22.5-22.5,22.5H146c-12.407,0-22.5-10.093-22.5-22.5V422H146c4.142,0,7.5-3.358,7.5-7.5    c0-4.142-3.358-7.5-7.5-7.5h-22.5V75h265V407z M388.5,60h-265V37.5c0-12.407,10.093-22.5,22.5-22.5h220    c12.407,0,22.5,10.093,22.5,22.5V60z"/><path d="M286,30h-30c-4.142,0-7.5,3.358-7.5,7.5c0,4.142,3.358,7.5,7.5,7.5h30c4.142,0,7.5-3.358,7.5-7.5    C293.5,33.358,290.142,30,286,30z"/><path d="M256,437c-12.407,0-22.5,10.093-22.5,22.5c0,12.407,10.093,22.5,22.5,22.5s22.5-10.093,22.5-22.5    C278.5,447.093,268.407,437,256,437z M256,467c-4.136,0-7.5-3.364-7.5-7.5s3.364-7.5,7.5-7.5s7.5,3.364,7.5,7.5    S260.136,467,256,467z"/><circle cx="226" cy="37" r="7"/></g><g transform="matrix(0.9375 0 0 0.9375 305.0000005724546 255)" id="L1_7"><path d="M57.62,22.61a31,31,0,0,0-5.58-8.84L51,12.62V10h1a1,1,0,0,0,1-1V5a3.009,3.009,0,0,0-3-3H40a3.009,3.009,0,0,0-3,3V9a1,1,0,0,0,1,1h1v2.62l-1.04,1.15A30.966,30.966,0,0,0,30,34.51V40H28V29a6.885,6.885,0,0,0-2.05-4.94,7.135,7.135,0,0,0-4.96-2.05,1,1,0,0,1-.99-.99V20h1a1,1,0,0,0,1-1V15a3.009,3.009,0,0,0-3-3H13a3.009,3.009,0,0,0-3,3v4a1,1,0,0,0,1,1h1v1.03a1,1,0,0,1-.93.99C6.97,22.31,4,25.24,4,29V49a3.009,3.009,0,0,0,3,3h4v5a5,5,0,0,0,5,5H48a5.017,5.017,0,0,0,4.9-4H55a5,5,0,0,0,5-5V34.51A30.864,30.864,0,0,0,57.62,22.61ZM39,5a1,1,0,0,1,1-1H50a1,1,0,0,1,1,1V8H39Zm10,5v2H41V10Zm-9.56,5.11,1-1.11h9.12l1,1.11A29.193,29.193,0,0,1,55.16,22H34.84A29.193,29.193,0,0,1,39.44,15.11ZM12,15a1,1,0,0,1,1-1h6a1,1,0,0,1,1,1v3H12ZM6,29c0-2.72,2.14-4.77,5.21-4.98A3.01,3.01,0,0,0,14,21.03V20h4v1.02a3.011,3.011,0,0,0,2.89,2.99,5.2,5.2,0,0,1,3.65,1.46A4.953,4.953,0,0,1,26,29V40H22V31a1,1,0,0,0-1-1H6Zm5,21H7a1,1,0,0,1-1-1V46h5Zm.1-6H6V32H20v8H16A5.017,5.017,0,0,0,11.1,44ZM51,57a3.009,3.009,0,0,1-3,3H16a3.009,3.009,0,0,1-3-3V45a3.009,3.009,0,0,1,3-3H48a3.009,3.009,0,0,1,3,3Zm7-4a3.009,3.009,0,0,1-3,3H53V45a4.924,4.924,0,0,0-1.03-3H58Zm0-13H32V34.51A29.012,29.012,0,0,1,33.97,24H56.03A29.012,29.012,0,0,1,58,34.51Z"/><path d="M48,35h2a1,1,0,0,0,1-1V30a1,1,0,0,0-1-1H48V27a1,1,0,0,0-1-1H43a1,1,0,0,0-1,1v2H40a1,1,0,0,0-1,1v4a1,1,0,0,0,1,1h2v2a1,1,0,0,0,1,1h4a1,1,0,0,0,1-1Zm-1-2a1,1,0,0,0-1,1v2H44V34a1,1,0,0,0-1-1H41V31h2a1,1,0,0,0,1-1V28h2v2a1,1,0,0,0,1,1h2v2Z"/><path d="M28,44a3,3,0,1,0,3,3A3,3,0,0,0,28,44Zm0,4a1,1,0,1,1,1-1A1,1,0,0,1,28,48Z"/><path d="M28,52a3,3,0,1,0,3,3A3,3,0,0,0,28,52Zm0,4a1,1,0,1,1,1-1A1,1,0,0,1,28,56Z"/><path d="M36,44a3,3,0,1,0,3,3A3,3,0,0,0,36,44Zm0,4a1,1,0,1,1,1-1A1,1,0,0,1,36,48Z"/><path d="M36,52a3,3,0,1,0,3,3A3,3,0,0,0,36,52Zm0,4a1,1,0,1,1,1-1A1,1,0,0,1,36,56Z"/><path d="M20,44a3,3,0,1,0,3,3A3,3,0,0,0,20,44Zm0,4a1,1,0,1,1,1-1A1,1,0,0,1,20,48Z"/><path d="M20,52a3,3,0,1,0,3,3A3,3,0,0,0,20,52Zm0,4a1,1,0,1,1,1-1A1,1,0,0,1,20,56Z"/><path d="M44,44a3,3,0,1,0,3,3A3,3,0,0,0,44,44Zm0,4a1,1,0,1,1,1-1A1,1,0,0,1,44,48Z"/><path d="M44,52a3,3,0,1,0,3,3A3,3,0,0,0,44,52Zm0,4a1,1,0,1,1,1-1A1,1,0,0,1,44,56Z"/><path d="M17,34H8a1,1,0,0,0,0,2h9a1,1,0,0,0,0-2Z"/><path d="M13,38H8a1,1,0,0,0,0,2h5a1,1,0,0,0,0-2Z"/></g><g transform="matrix(0.11718795448541641 0 0 0.11718795448541641 192 21.99999622343512)" id="L1_8"><path d="m97.097 297.684c-4.765-.61-8.572 2.685-9.111 6.899-.538 4.202 2.3 8.36 7.08 8.972 4.392.56 8.39-2.544 8.951-6.92.56-4.382-2.537-8.39-6.92-8.951z"/><path d="m511.998 320.035c0-39.865-32.404-72.036-71.997-72.036-25.181 0-26.523-2.733-56.851-20.424 3.768-7.551-5.24-15.011-11.949-9.976l-2.254 1.691-26.068-15.207c4.444-7.491-4.69-15.729-11.678-10.484l-2.754 2.066-25.882-15.098c5.184-7.45-4.157-16.377-11.364-10.968l-3.254 2.44-55.276-32.244c-12.625-7.366-29.006-3.763-37.259 8.647l-2.733 4.109c-6.25 9.388-6.245 21.518.011 30.902l3.628 5.442-25.469 12.734c-15.934 7.967-35.51 2.954-45.541-12.095l-14.234-21.352c-15.155-22.729-49.077-21.213-62.154 2.757-18.038 33.07-17.909 32.674-20.302 37.699-11.539 22.737-17.572 55.203-12.863 86.435l-15.182 37.955c-1.482 3.705-.007 7.937 3.459 9.917 37.842 21.624 80.882 33.054 124.467 33.054h308.905c32.401 0 62.772-19.996 74.195-53.504.23-.699.395-1.611.399-2.46zm-16.275-5.468c-24.446 8.698-56.544 13.432-82.802 13.432-39.557 0-79.35-1.791-118.929-5.322l34.578-46.102c33.067 12.887 67.829 19.424 103.431 19.424 15.582 0 27.091-14.631 23.282-29.864 21.789 6.192 38.197 25.265 40.44 48.432zm-289.725-153.149c3.168-4.763 5.574-9.419 12.633-9.419 4.573 0 2.67-.313 55.424 30.459l-14.853 11.14c-3.535 2.651-4.251 7.666-1.601 11.2 2.647 3.529 7.663 4.254 11.2 1.601l20.254-15.19 25.5 14.875-15.354 11.515c-3.535 2.651-4.251 7.666-1.601 11.2 2.647 3.529 7.663 4.254 11.2 1.601l20.754-15.565 25.5 14.875-15.854 11.89c-3.535 2.651-4.251 7.666-1.601 11.2 2.647 3.529 7.663 4.254 11.2 1.601l21.254-15.94 26.97 15.732c11.319 6.602 24.386 9.808 34.976 9.808 4.436 0 8 3.564 8 8s-3.564 8-8 8c-56.442 0-110.497-17.676-155.276-49.286l-62.894-44.392-7.828-11.742c-2.663-3.999-2.665-9.165-.003-13.163zm-143.032 17.186c7.323-13.427 26.314-14.261 34.795-1.544l14.234 21.352c14.551 21.829 42.928 29.069 66.01 17.53l29.293-14.646c64.027 45.191 75.523 54.865 106.098 68.848l-38.063 50.748c-9.444-.976-18.869-2.061-28.275-3.235-2.607-14.403-10.414-26.593-20.799-34.893-14.779-11.829-31.305-21.109-49.114-27.582l-130.134-47.327zm374.439 181.395h-308.906c-38.486 0-76.522-9.521-110.446-27.589l11.063-27.657 34.037 4.546c4.394.585 8.405-2.505 8.988-6.871.585-4.379-2.491-8.403-6.871-8.988l-34.209-4.569c-2.726-22.536.413-45.556 8.984-66.524l131.635 47.872c16.168 5.876 31.168 14.3 44.588 25.041 6.236 4.983 11.223 11.961 13.809 20.172-.103-.014-102.218-13.692-103.145-13.692-4.418 0-7.995 3.582-7.995 8 0 4.098 3.086 7.476 7.058 7.944 108.195 14.437 178.281 26.315 286.928 26.315 24.091 0 51.872-3.697 75.276-10.277-11.441 16.198-30.202 26.277-50.794 26.277z"/></g><path d="M307.6,153.199c-11.2,0-22,2.4-32,6.4l-13.6-26.4v-42c0-2.4-1.6-4.8-4-5.6l-32-12c-3.2-1.2-6.4,0.4-7.6,3.6    c-1.2,3.2,0.4,6.4,3.6,7.6l28.4,10.4v34H133.2v-11.6h14.4c3.2,0,6-2.8,6-6s-2.8-6-6-6h-37.2c-3.2,0-6,2.8-6,6s2.8,6,6,6h10.8v16.4    l-11.6,25.2c-8.8-3.6-18.8-5.6-28.8-5.6c-44.4,0-80.8,36-80.8,80.8s36,80.8,80.8,80.8c42.4,0,77.2-33.2,80.4-74.8h26    c2,0,3.6-0.8,4.8-2.4l62.8-90.8l10,18.8c-22.8,13.6-38,39.2-38,68c0,44.4,36,80.8,80.8,80.8s80.8-36,80.8-80.8    S352.4,153.199,307.6,153.199z M80.8,302.799c-38,0-68.8-30.8-68.8-68.8s30.8-68.8,68.8-68.8c8.4,0,16.4,1.6,23.6,4.4l-29.2,62    c0,0,0,0,0,0.4c-0.4,0.8-0.4,1.2-0.4,2c0,0,0,0,0,0.4c0,0.8,0,1.2,0.4,2v0.4c0,0.4,0,0.4,0.4,0.8c0,0.4,0.4,0.4,0.8,0.8    c0,0,0,0,0,0.4c0.4,0.4,1.2,0.8,1.6,1.2h0.4c0.8,0.4,1.2,0.4,2,0.4h68.4C146,275.199,116.8,302.799,80.8,302.799z M90,227.999    l25.2-53.2c18.8,10.8,32,30.4,34,53.2H90z M184,227.999h-23.2c-2-27.6-18-51.2-40.8-64.4l10.8-22.8H244L184,227.999z     M307.2,302.799c-38,0-68.8-30.8-68.8-68.8c0-24.4,12.8-45.6,32-58l31.6,60.8c1.2,2,3.2,3.2,5.2,3.2c0.8,0,2-0.4,2.8-0.8    c2.8-1.6,4-5.2,2.4-8l-31.6-60.8c8.4-3.2,17.2-5.2,26.4-5.2c38,0,68.8,30.8,68.8,68.8S345.2,302.799,307.2,302.799z" transform="matrix(0.15447992086410522 0 0 0.15447992086410522 305 15.000002489178314)" id="L1_12"/><g transform="matrix(0.11718704551458359 0 0 0.11718704551458359 77 10.999995851532617)" id="L1_13"><path d="M197.965,198.867c-4.313-4.721-10.454-7.486-16.847-7.585c-12.859-0.165-23.497,10.087-23.715,22.936    c-0.07,4.142,3.231,7.556,7.372,7.626c0.044,0.001,0.086,0.001,0.13,0.001c4.083,0,7.427-3.275,7.496-7.374    c0.077-4.589,3.849-8.271,8.482-8.191c2.313,0.036,4.446,0.996,6.007,2.704c2.794,3.059,7.539,3.273,10.596,0.479    C200.544,206.67,200.759,201.925,197.965,198.867z"/><path d="M237.867,223.31c-2.299-5.404-6.774-9.669-12.281-11.702c-11.074-4.085-23.419,1.592-27.522,12.653    c-1.441,3.884,0.54,8.2,4.423,9.641c0.86,0.319,1.741,0.47,2.607,0.47c3.047,0,5.911-1.87,7.033-4.894    c1.232-3.322,4.945-5.022,8.265-3.797c1.669,0.616,2.973,1.859,3.67,3.499c1.621,3.811,6.027,5.589,9.837,3.967    C237.712,231.526,239.487,227.122,237.867,223.31z"/><path d="M286.206,156.885c-2.932-2.927-7.681-2.921-10.606,0.011l-7.07,7.084c-2.926,2.932-2.921,7.681,0.011,10.606    c1.463,1.461,3.38,2.191,5.297,2.191c1.922,0,3.844-0.734,5.309-2.202l7.07-7.084C289.143,164.559,289.138,159.81,286.206,156.885    z"/><path d="M239.545,253.709h-9.996c-4.143,0-7.5,3.358-7.5,7.5c0,4.142,3.357,7.5,7.5,7.5h9.996c4.143,0,7.5-3.358,7.5-7.5    C247.045,257.067,243.688,253.709,239.545,253.709z"/><path d="M316.189,253.709h-9.997c-4.143,0-7.5,3.358-7.5,7.5c0,4.142,3.358,7.5,7.5,7.5h9.997c4.142,0,7.5-3.358,7.5-7.5    C323.689,257.067,320.331,253.709,316.189,253.709z"/><path d="M511.761,388.942l-1.953-10.542c-1.245-6.736-7.127-11.625-13.986-11.625c-0.861,0-1.729,0.079-2.583,0.236l-39.76,7.304    l18.006-12.037c4.719-3.154,7.104-8.796,6.075-14.393c-0.286-1.533-0.822-3.004-1.598-4.381l-5.449-9.649    c-1.867-3.315-5.051-5.778-8.726-6.754c-1.8-0.48-3.682-0.587-5.518-0.348c2.005-11.066,3.039-22.368,3.039-33.873    c0-5.105-3.07-9.498-7.455-11.449c5.73-13.628,6.121-29.23,0.457-43.518c-0.459-1.162-1.141-2.199-2.024-3.083    c-0.876-0.876-1.901-1.553-3.064-2.02c-6.787-2.703-13.92-4.073-21.201-4.073c-0.931,0-1.858,0.024-2.782,0.068    c-1.039-20.933-18.364-37.644-39.514-37.644c-2.785,0-5.501,0.296-8.124,0.848c1.822-10.9,0.749-22.303-3.496-33.009    c-0.456-1.177-1.141-2.233-2.072-3.179c-0.896-0.896-1.947-1.587-3.113-2.05c-7.311-2.912-14.995-4.388-22.839-4.388    c-11.816,0-23.119,3.322-32.877,9.498c-3.565-10.327-9.444-20.022-17.658-28.255c-2.406-2.41-5.606-3.738-9.011-3.738    c-3.405,0-6.605,1.328-9.014,3.74l-36.313,36.396c-6.72-5.994-15.563-9.577-25.161-9.577c-2.178,0-4.377,0.191-6.536,0.567    c-7.823,1.362-15.022,5.191-20.541,10.799c-7.077-3.415-15.184-4.58-22.975-3.224c-1.714,0.298-3.377,0.718-4.991,1.23v-28.046    c0-19.314-15.523-35.055-34.725-35.387V87.48c5.878-1.017,10.366-6.14,10.366-12.304V39.137c0-6.892-5.607-12.5-12.5-12.5H61.154    c-6.893,0-12.5,5.608-12.5,12.5v36.039c0,6.164,4.488,11.287,10.366,12.304v15.904c-19.202,0.331-34.724,16.072-34.724,35.387    v218.896C9.322,371.19,0,390.059,0,410.925c0,41.046,36.025,74.44,80.307,74.44l300.187-0.088    c10.246-0.004,19.882-4.507,26.436-12.353c6.384-7.638,9.097-17.559,7.534-27.343l59.957,10.775    c0.83,0.149,1.68,0.225,2.523,0.225c2.99,0,5.855-0.918,8.281-2.652c3.119-2.228,5.23-5.677,5.793-9.46l1.624-10.897    c0.234-1.561,0.208-3.133-0.077-4.674c-1.032-5.572-5.275-9.993-10.81-11.261l-21.133-4.848l39.721-7.297    c3.746-0.688,6.996-2.791,9.152-5.922C511.647,396.447,512.451,392.673,511.761,388.942z M426.021,243.735    c4.515,0,8.954,0.715,13.222,2.124c3.814,11.614,2.386,24.141-3.586,34.489h-20.204l6.447-6.462    c2.926-2.932,2.92-7.681-0.013-10.607c-2.933-2.926-7.682-2.921-10.606,0.012l-3.411,3.419c-1.599-5.265-4.391-9.979-8.061-13.846    C407.253,246.953,416.391,243.735,426.021,243.735z M383.725,206.159c13.545,0,24.564,11.052,24.564,24.637    c0,0.252-0.012,0.501-0.019,0.751c-7.906,2.571-15.193,6.866-21.408,12.699c-0.989-0.375-1.992-0.723-3.022-1.008    c-2.194-11.852-10.181-21.352-20.732-25.789C367.487,210.665,375.085,206.159,383.725,206.159z M344.08,164.381    c5.094,0,10.1,0.824,14.924,2.454c3.877,11.528,3.085,23.911-1.855,34.637c-4.061,3.699-7.356,8.229-9.608,13.321    c-1.339,0.078-2.678,0.226-4.001,0.456c-5.877,1.023-11.357,3.573-15.943,7.271c-1.564-2.86-3.479-5.499-5.673-7.875    l17.199-17.238c2.926-2.932,2.92-7.681-0.013-10.606c-2.932-2.926-7.681-2.921-10.607,0.012l-18.798,18.841    c-3.577-1.691-7.443-2.867-11.506-3.417c1.755-8.95,6.098-17.383,12.816-24.117C319.854,169.26,331.597,164.381,344.08,164.381z     M286.61,280.348h-6.501c-1.095-2.786-3.802-4.761-6.977-4.761s-5.882,1.976-6.977,4.761h-7.648    c1.776-2.892,1.417-6.724-1.09-9.226c-2.932-2.926-7.681-2.921-10.607,0.011l-7.069,7.084c-0.635,0.636-1.123,1.361-1.482,2.131    h-15.265c-5.717-8.773-9.206-19.128-9.619-30.268h118.986c-0.413,11.14-3.902,21.495-9.619,30.268h-15.885    c-0.358-0.77-0.848-1.496-1.482-2.132l-7.068-7.084c-2.927-2.931-7.674-2.939-10.606-0.012    C285.192,273.622,284.833,277.455,286.61,280.348z M269.167,235.08c2.827-10.477,12.384-18.208,23.71-18.208    c11.327,0,20.884,7.732,23.711,18.208H269.167z M284.504,142.859c7.134,7.71,11.851,16.864,14.164,26.486    c-3.829,4.161-7.01,8.759-9.519,13.652c-1.139-0.698-2.474-1.107-3.907-1.107h-9.994c-4.142,0-7.5,3.358-7.5,7.5    c0,4.142,3.358,7.5,7.5,7.5h8.767c-0.493,2.071-0.876,4.167-1.154,6.279c-2.978,0.782-5.822,1.896-8.484,3.314    c-4.999-8.627-13.277-15.056-23.085-17.635c-0.003-0.021-0.007-0.042-0.011-0.063c-0.588-3.394-1.614-6.614-3.013-9.607    L284.504,142.859z M148.926,210.535c-0.44-1.23-0.773-2.492-0.992-3.758c-2.151-12.401,6.209-24.249,18.632-26.412    c1.31-0.228,2.641-0.344,3.955-0.344c4.941,0,9.663,1.576,13.654,4.557c1.651,1.234,3.739,1.733,5.771,1.381    c2.032-0.353,3.829-1.526,4.969-3.245c3.521-5.311,8.908-8.835,15.168-9.925c1.313-0.229,2.647-0.344,3.964-0.344    c11.112,0,20.556,7.95,22.454,18.905c0.218,1.255,0.33,2.563,0.332,3.888c0.007,3.882,2.976,7.118,6.844,7.458    c8.385,0.737,15.523,6.014,18.832,13.448c-4.43,5.317-7.501,11.809-8.667,18.936H211.07c-5.318,0-9.881,3.283-11.784,7.929    c-9.41-6.409-20.5-9.862-32.122-9.862c-7.281,0-14.414,1.371-21.206,4.075c-1.152,0.46-2.182,1.139-3.06,2.017    c-0.89,0.89-1.573,1.933-2.021,3.077c-1.726,4.353-2.877,8.828-3.499,13.331c-2.688-3.06-4.582-6.865-5.322-11.135    c-1.764-10.176,3.563-20.308,12.95-24.64C148.534,218.244,150.235,214.192,148.926,210.535z M171.284,278.297l2.046,2.051h-18.013    c-4.044-9.382-4.658-20.061-1.375-30.077c4.274-1.411,8.711-2.125,13.222-2.125c11.301,0,21.932,4.417,29.933,12.436    c1.064,1.067,2.055,2.185,2.986,3.34c1.271,5.754,3.224,11.251,5.74,16.425H194.52l-12.617-12.646    c-2.927-2.931-7.676-2.939-10.606-0.012C168.364,270.616,168.358,275.365,171.284,278.297z M139.344,280.348h-26.737    c1.192-7.265,5.562-13.458,11.628-17.11c3.591,4.811,8.278,8.701,13.678,11.336C138.295,276.52,138.764,278.449,139.344,280.348z     M63.654,41.637h55.991v31.039H63.654V41.637z M109.279,87.676v15.693H74.021V87.676H109.279z M39.297,169.187H88    c4.143,0,7.5-3.358,7.5-7.5c0-4.142-3.357-7.5-7.5-7.5H39.297v-15.416c0-11.25,9.124-20.402,20.339-20.402h64.028    c11.216,0,20.34,9.152,20.34,20.402v15.416H130c-4.143,0-7.5,3.358-7.5,7.5c0,4.142,3.357,7.5,7.5,7.5h14.004v6.657    c-8.593,8.425-13.056,20.78-10.852,33.489c0.004,0.025,0.009,0.051,0.013,0.077c-12.032,8.255-18.443,22.931-15.89,37.664    c0.149,0.86,0.336,1.706,0.54,2.543c-3.747,2.066-7.112,4.734-9.996,7.856H39.297V169.187z M39.296,272.472L39.296,272.472H99.11    c-0.796,2.528-1.358,5.159-1.632,7.876h-1.264c-6.903,0-12.52,5.621-12.52,12.53c0,11.909,1.107,23.6,3.252,35.038    c-2.155-0.173-4.365-0.266-6.613-0.266c-9.07,0-17.712,1.439-24.331,4.053c-10.125,3.998-12.924,9.675-13.535,13.603    c-1.073,0.534-2.127,1.098-3.171,1.675V272.472z M134.267,364.607c2.701,2.161,4.352,3.998,5.309,5.323    c-0.09,0.001-0.184,0.002-0.279,0.002c-4.245,0-11.872-1.711-20.545-6.512c-3.229-1.789-6.204-3.81-8.604-5.843    c-2.798-2.371-6.901-2.369-9.697,0.001c-2.4,2.035-5.374,4.055-8.6,5.84c-8.675,4.803-16.302,6.514-20.546,6.514    c-0.097,0-0.19-0.001-0.281-0.002c0.956-1.325,2.607-3.163,5.309-5.325c2.361-1.89,3.356-5.014,2.523-7.921    c-0.834-2.908-3.332-5.031-6.337-5.383c-7.319-0.858-11.947-2.721-14.114-4.077c2.715-1.691,9.579-4.574,21.931-4.574    c10.23,0,17.707,2.151,21.293,4.165c2.281,1.28,5.062,1.28,7.343,0.001c3.588-2.014,11.066-4.165,21.296-4.165    c12.353,0,19.216,2.884,21.93,4.574c-2.166,1.357-6.795,3.219-14.116,4.077c-3.005,0.353-5.504,2.475-6.337,5.384    C130.909,359.594,131.904,362.718,134.267,364.607z M119.264,455.893l0.258,1.39c0.892,4.817,2.773,9.238,5.401,13.082H80.307    c-36.01,0-65.307-26.664-65.307-59.44c0-22.399,13.688-41.935,33.844-52.065c2.315,1.728,5.201,3.218,8.625,4.42    c-1.358,2.319-2.304,4.813-2.527,7.414c-0.296,3.458,0.762,6.742,2.982,9.248c2.933,3.312,7.435,4.991,13.381,4.991    c7.924,0,18.321-3.137,27.811-8.391c2.185-1.209,4.251-2.486,6.185-3.82c1.933,1.333,3.999,2.61,6.185,3.821    c9.49,5.253,19.887,8.389,27.811,8.39h0.001c5.944,0,10.446-1.679,13.378-4.99c2.221-2.506,3.28-5.79,2.983-9.249    c-0.223-2.601-1.169-5.095-2.527-7.414c3.424-1.203,6.311-2.693,8.626-4.42c15.985,8.034,27.896,21.985,32.143,38.588    l-53.045,20.151C125.329,423.499,116.248,439.603,119.264,455.893z M395.418,463.307c-3.698,4.428-9.141,6.968-14.931,6.97    l-7.872,0.003l-4.918-26.555c-0.755-4.073-4.666-6.766-8.741-6.009c-4.072,0.754-6.763,4.667-6.009,8.74l4.414,23.829    l-25.806,0.01l-3.325-17.957c-0.755-4.073-4.667-6.763-8.741-6.009c-4.072,0.754-6.763,4.667-6.009,8.74l2.82,15.232    l-60.025,0.023l-4.518-24.388c-0.756-4.073-4.666-6.763-8.741-6.008c-4.073,0.754-6.763,4.668-6.009,8.741l4.013,21.661    l-87.644,0.034c-0.002,0-0.004,0-0.006,0c-9.372,0-17.404-6.65-19.102-15.816l-0.258-1.39c-1.695-9.156,3.423-18.213,12.17-21.537    l29.477-11.198l2.196,11.852c0.669,3.611,3.821,6.135,7.365,6.135c0.454,0,0.914-0.042,1.376-0.127    c4.072-0.755,6.762-4.668,6.007-8.741l-2.693-14.533l43.755-16.622c3.872-1.471,5.819-5.803,4.348-9.675    c-1.471-3.873-5.808-5.819-9.674-4.348l-20.361,7.735c-5.712-20.223-20.386-37.116-39.845-46.794    c-0.611-3.928-3.41-9.605-13.534-13.603c-6.619-2.614-15.261-4.053-24.331-4.053c-6.242,0-12.203,0.689-17.465,1.944v-4.53    c0-4.142-3.357-7.5-7.5-7.5c-1.751,0-3.357,0.604-4.634,1.61c-1.183-7.823-1.845-15.769-1.955-23.827H343    c4.143,0,7.5-3.358,7.5-7.5c0-4.142-3.357-7.5-7.5-7.5h-3.069c4.776-9.836,7.474-20.864,7.474-32.519    c0-6.617-5.063-12.068-11.515-12.687c2.809-2.649,6.315-4.435,10.223-5.116c1.145-0.199,2.307-0.3,3.455-0.3    c9.683,0,17.911,6.927,19.564,16.469c0.191,1.105,0.289,2.245,0.29,3.39c0.005,3.884,2.975,7.122,6.844,7.462    c8.963,0.787,16.296,7.528,17.833,16.392c0.408,2.357,0.357,4.683-0.052,6.909H386c-4.143,0-7.5,3.358-7.5,7.5    c0,4.142,3.357,7.5,7.5,7.5h58.292c-0.186,13.758-1.958,27.197-5.263,40.236l-40.646,23.994    c-2.486-8.652-8.264-15.991-16.225-20.447c-8.929-4.997-19.54-5.778-29.11-2.143l-83.711,31.802    c-3.873,1.471-5.819,5.803-4.348,9.675c1.471,3.873,5.807,5.817,9.674,4.348l11.028-4.189l3.424,18.487    c0.669,3.611,3.821,6.136,7.366,6.136c0.453,0,0.913-0.042,1.375-0.127c4.072-0.754,6.763-4.667,6.009-8.74l-3.921-21.17    l58.429-22.197c5.414-2.056,11.412-1.615,16.459,1.21c5.038,2.819,8.528,7.679,9.576,13.331l15.173,81.915    C400.627,453.116,399.11,458.889,395.418,463.307z M422.178,404.601c-3.499,0.643-6.064,3.655-6.143,7.212    c-0.078,3.557,2.354,6.679,5.821,7.474l55.84,12.808l-1.395,9.359l-64.734-11.633l-10.119-54.634l56.384-33.284l4.697,8.317    l-47.558,31.791c-2.957,1.977-4.119,5.759-2.781,9.055c1.337,3.296,4.807,5.2,8.305,4.557l74.706-13.723l1.664,8.98    L422.178,404.601z"/></g><g transform="matrix(0.9375 0 0 0.9375 74 128)" id="L1_14"><path d="m27 23.5c0 1.722 1.691 3.115 4 3.431v.97c-1.394-.152-2.756-.607-3.941-1.397l-.504-.336-1.109 1.664.504.336c1.797 1.198 3.889 1.832 6.05 1.832s4.253-.634 6.051-1.832l.504-.336-1.109-1.664-.504.336c-1.185.79-2.547 1.245-3.941 1.397v-.97c2.309-.316 4-1.709 4-3.431 0-1.963-2.196-3.5-5-3.5s-5.001 1.537-5.001 3.5zm5-1.5c1.717 0 3 .792 3 1.5s-1.283 1.5-3 1.5-3-.792-3-1.5 1.283-1.5 3-1.5z"/><ellipse cx="26px" cy="17px" rx="2px" ry="3px"/><ellipse cx="38px" cy="17px" rx="2px" ry="3px"/><path d="m56 42c-.838 0-1.646.223-2.399.629-1.464-4.319-4.111-8.07-7.734-10.888l-2.24-1.742c2.762-2.464 4.373-5.926 4.373-9.999 0-1.055-.106-2.124-.309-3.19 3.615-.783 6.309-4.013 6.309-7.81 0-4.411-3.589-8-8-8-2.596 0-4.991 1.246-6.483 3.312-2.215-1.438-4.758-2.312-7.517-2.312s-5.302.874-7.518 2.312c-1.492-2.066-3.886-3.312-6.482-3.312-4.411 0-8 3.589-8 8 0 3.797 2.694 7.026 6.308 7.811-.202 1.065-.308 2.135-.308 3.189 0 4.073 1.611 7.535 4.373 9.999l-2.24 1.742c-3.623 2.818-6.27 6.569-7.734 10.888-.753-.406-1.561-.629-2.399-.629-3.925 0-7 4.612-7 10.5 0 5.885 3.071 10.495 7.093 10.495h.006l1.441-.144c5.612-.562 11.003-2.561 15.636-5.768 1.944.602 4.215.917 6.824.917s4.88-.315 6.824-.917c4.633 3.208 10.024 5.206 15.637 5.768l1.539.149c3.925 0 7-4.612 7-10.5s-3.075-10.5-7-10.5zm-11.36-8.681c3.498 2.722 6.006 6.391 7.289 10.621-.992 1.055-1.798 2.493-2.312 4.211l-2.711-.903c.056-.564.094-1.142.094-1.748 0-5.117-2.088-10.301-5.526-13.929.172-.103.338-.212.505-.322zm1.36-30.319c3.309 0 6 2.691 6 6 0 2.87-2.052 5.309-4.794 5.872-1.08-3.587-3.214-6.978-6.076-9.378 1.119-1.556 2.919-2.494 4.87-2.494zm-34 6c0-3.309 2.691-6 6-6 1.951 0 3.751.939 4.87 2.494-2.862 2.4-4.996 5.791-6.076 9.378-2.742-.563-4.794-3.002-4.794-5.872zm6 11c0-7.399 6.116-16 14-16s14 8.601 14 16c0 8.289-7.031 12-14 12s-14-3.711-14-12zm1.36 13.319 2.661-2.07c.167.109.333.219.505.322-3.432 3.63-5.526 8.84-5.526 13.929 0 .606.038 1.184.094 1.748l-2.711.903c-.514-1.718-1.32-3.155-2.312-4.211 1.283-4.229 3.791-7.899 7.289-10.621zm-16.36 19.181c0-.822.076-1.619.211-2.377 2.73.562 4.789 2.983 4.789 5.877v5c-2.71 0-5-3.893-5-8.5zm7 8.273v-4.773c0-3.82-2.693-7.019-6.279-7.809.884-2.484 2.487-4.191 4.279-4.191 2.055 0 3.99 2.323 4.704 5.649.06.278.235.518.482.658.246.142.542.171.812.08l3.442-1.147c.781 3.151 2.616 5.487 5.477 6.946-3.907 2.462-8.327 4.029-12.917 4.587zm9-15.273c0-4.799 2.07-9.697 5.411-12.97 2.211.945 4.769 1.47 7.589 1.47 2.819 0 5.375-.525 7.585-1.468 3.348 3.271 5.415 8.141 5.415 12.968 0 7.065-4.252 10.5-13 10.5s-13-3.435-13-10.5zm27.56 3.741 3.442 1.147c.269.091.565.061.812-.08s.422-.38.482-.658c.714-3.327 2.649-5.65 4.704-5.65 1.792 0 3.395 1.707 4.279 4.191-3.586.79-6.279 3.989-6.279 7.809v4.773c-4.591-.559-9.01-2.125-12.917-4.587 2.861-1.458 4.697-3.795 5.477-6.945zm9.539 11.764-.099-.01v-4.995c0-2.894 2.059-5.315 4.789-5.877.135.758.211 1.555.211 2.377 0 4.607-2.29 8.5-4.901 8.505z"/><path d="m32 42c-5.047 0-9 2.636-9 6s3.953 6 9 6 9-2.636 9-6-3.953-6-9-6zm0 10c-3.794 0-7-1.832-7-4s3.206-4 7-4 7 1.832 7 4-3.206 4-7 4z"/></g><path d="M469.333,64H42.667C19.146,64,0,83.135,0,106.667v256c0,23.531,19.146,42.667,42.667,42.667H224v21.333h-64    c-5.896,0-10.667,4.771-10.667,10.667c0,5.896,4.771,10.667,10.667,10.667h192c5.896,0,10.667-4.771,10.667-10.667    c0-5.896-4.771-10.667-10.667-10.667h-64v-21.333h181.333c23.521,0,42.667-19.135,42.667-42.667v-256    C512,83.135,492.854,64,469.333,64z M266.667,426.667h-21.333v-21.333h21.333V426.667z M490.667,362.667    c0,11.76-9.563,21.333-21.333,21.333H42.667c-11.771,0-21.333-9.573-21.333-21.333v-256c0-11.76,9.563-21.333,21.333-21.333    h426.667c11.771,0,21.333,9.573,21.333,21.333V362.667z" transform="matrix(0.1171875 0 0 0.1171875 73 248.00000823974642)" id="L1_16"/><g transform="matrix(0.14106494188308716 0 0 0.14106494188308716 188.9999992078874 256)" id="L1_18"><path d="M182.79,221.346h-45.872V15h28.342c3.613,22.915,23.495,40.496,47.409,40.496S256.465,37.915,260.079,15h28.339v114.851   c0,4.142,3.358,7.5,7.5,7.5s7.5-3.358,7.5-7.5v-20.217l16.141,8.07c1.071,0.536,2.217,0.792,3.35,0.792   c2.372,0,4.685-1.126,6.132-3.176l35.999-50.997c2.254-3.194,1.677-7.584-1.326-10.087L300.747,1.765   C299.442,0.665,297.758,0,295.918,0h-166.5c-1.843,0-3.528,0.667-4.834,1.77l-62.96,52.466c-3.003,2.503-3.581,6.893-1.326,10.087   l35.999,50.997c1.447,2.049,3.76,3.176,6.132,3.176c1.132,0,2.278-0.257,3.35-0.792l16.14-8.07v119.212c0,4.142,3.358,7.5,7.5,7.5   h53.372c4.142,0,7.5-3.358,7.5-7.5S186.932,221.346,182.79,221.346z M320.502,101.405l-17.084-8.542V23.517l45.374,37.811   L320.502,101.405z M212.669,40.496c-15.615,0-28.722-10.905-32.129-25.496h64.258C241.391,29.592,228.284,40.496,212.669,40.496z    M104.834,101.405l-28.29-40.077l45.374-37.811v69.346L104.834,101.405z"/><path d="M357.692,146.063H206.896c-4.142,0-7.5,3.358-7.5,7.5v264.274c0,4.142,3.358,7.5,7.5,7.5h57.751   c3.98,0,7.268-3.109,7.488-7.084l10.158-182.747l10.158,182.747c0.221,3.974,3.508,7.084,7.488,7.084h57.751   c4.142,0,7.5-3.358,7.5-7.5V153.563C365.192,149.42,361.834,146.063,357.692,146.063z M350.192,177.848h-23.65v-16.785h23.65   V177.848z M253.046,177.848v-16.785h58.496v16.785H253.046z M238.046,161.063v16.785h-23.65v-16.785H238.046z M307.036,410.336   L296.841,226.94c-0.221-3.974-3.508-7.084-7.488-7.084h-14.117c-3.98,0-7.268,3.109-7.488,7.084l-10.194,183.396h-43.157V192.848   h135.796v217.488H307.036z"/></g></defs><g fi:class="KUsePattern" opacity="0.09"><pattern id="pattern_L1_2" width="350" height="350" patternUnits="userSpaceOnUse"><use xlink:href="#L1_2" x="-350" y="-350"/><use xlink:href="#L1_2" x="0" y="-350"/><use xlink:href="#L1_2" x="350" y="-350"/><use xlink:href="#L1_2" x="-350" y="0"/><use xlink:href="#L1_2" x="0" y="0"/><use xlink:href="#L1_2" x="350" y="0"/><use xlink:href="#L1_2" x="-350" y="350"/><use xlink:href="#L1_2" x="0" y="350"/><use xlink:href="#L1_2" x="350" y="350"/></pattern><rect x="0" y="0" width="100%" height="100%" fill="url(#pattern_L1_2)"/></g><g fi:class="KUsePattern" opacity="0.1"><pattern id="pattern_L1_3" width="350" height="350" patternUnits="userSpaceOnUse"><use xlink:href="#L1_3" x="-350" y="-350"/><use xlink:href="#L1_3" x="0" y="-350"/><use xlink:href="#L1_3" x="350" y="-350"/><use xlink:href="#L1_3" x="-350" y="0"/><use xlink:href="#L1_3" x="0" y="0"/><use xlink:href="#L1_3" x="350" y="0"/><use xlink:href="#L1_3" x="-350" y="350"/><use xlink:href="#L1_3" x="0" y="350"/><use xlink:href="#L1_3" x="350" y="350"/></pattern><rect x="0" y="0" width="100%" height="100%" fill="url(#pattern_L1_3)"/></g><g fi:class="KUsePattern" opacity="0.1"><pattern id="pattern_L1_7" width="350" height="350" patternUnits="userSpaceOnUse"><use xlink:href="#L1_7" x="-350" y="-350"/><use xlink:href="#L1_7" x="0" y="-350"/><use xlink:href="#L1_7" x="350" y="-350"/><use xlink:href="#L1_7" x="-350" y="0"/><use xlink:href="#L1_7" x="0" y="0"/><use xlink:href="#L1_7" x="350" y="0"/><use xlink:href="#L1_7" x="-350" y="350"/><use xlink:href="#L1_7" x="0" y="350"/><use xlink:href="#L1_7" x="350" y="350"/></pattern><rect x="0" y="0" width="100%" height="100%" fill="url(#pattern_L1_7)"/></g><g fi:class="KUsePattern" opacity="0.09"><pattern id="pattern_L1_8" width="350" height="350" patternUnits="userSpaceOnUse"><use xlink:href="#L1_8" x="-350" y="-350"/><use xlink:href="#L1_8" x="0" y="-350"/><use xlink:href="#L1_8" x="350" y="-350"/><use xlink:href="#L1_8" x="-350" y="0"/><use xlink:href="#L1_8" x="0" y="0"/><use xlink:href="#L1_8" x="350" y="0"/><use xlink:href="#L1_8" x="-350" y="350"/><use xlink:href="#L1_8" x="0" y="350"/><use xlink:href="#L1_8" x="350" y="350"/></pattern><rect x="0" y="0" width="100%" height="100%" fill="url(#pattern_L1_8)"/></g><g fi:class="KUsePattern" opacity="0.1"><pattern id="pattern_L1_12" width="350" height="350" patternUnits="userSpaceOnUse"><use xlink:href="#L1_12" x="-350" y="-350"/><use xlink:href="#L1_12" x="0" y="-350"/><use xlink:href="#L1_12" x="350" y="-350"/><use xlink:href="#L1_12" x="-350" y="0"/><use xlink:href="#L1_12" x="0" y="0"/><use xlink:href="#L1_12" x="350" y="0"/><use xlink:href="#L1_12" x="-350" y="350"/><use xlink:href="#L1_12" x="0" y="350"/><use xlink:href="#L1_12" x="350" y="350"/></pattern><rect x="0" y="0" width="100%" height="100%" fill="url(#pattern_L1_12)"/></g><g fi:class="KUsePattern" opacity="0.09"><pattern id="pattern_L1_13" width="350" height="350" patternUnits="userSpaceOnUse"><use xlink:href="#L1_13" x="-350" y="-350"/><use xlink:href="#L1_13" x="0" y="-350"/><use xlink:href="#L1_13" x="350" y="-350"/><use xlink:href="#L1_13" x="-350" y="0"/><use xlink:href="#L1_13" x="0" y="0"/><use xlink:href="#L1_13" x="350" y="0"/><use xlink:href="#L1_13" x="-350" y="350"/><use xlink:href="#L1_13" x="0" y="350"/><use xlink:href="#L1_13" x="350" y="350"/></pattern><rect x="0" y="0" width="100%" height="100%" fill="url(#pattern_L1_13)"/></g><g fi:class="KUsePattern" opacity="0.09"><pattern id="pattern_L1_14" width="350" height="350" patternUnits="userSpaceOnUse"><use xlink:href="#L1_14" x="-350" y="-350"/><use xlink:href="#L1_14" x="0" y="-350"/><use xlink:href="#L1_14" x="350" y="-350"/><use xlink:href="#L1_14" x="-350" y="0"/><use xlink:href="#L1_14" x="0" y="0"/><use xlink:href="#L1_14" x="350" y="0"/><use xlink:href="#L1_14" x="-350" y="350"/><use xlink:href="#L1_14" x="0" y="350"/><use xlink:href="#L1_14" x="350" y="350"/></pattern><rect x="0" y="0" width="100%" height="100%" fill="url(#pattern_L1_14)"/></g><g fi:class="KUsePattern" opacity="0.09"><pattern id="pattern_L1_16" width="350" height="350" patternUnits="userSpaceOnUse"><use xlink:href="#L1_16" x="-350" y="-350"/><use xlink:href="#L1_16" x="0" y="-350"/><use xlink:href="#L1_16" x="350" y="-350"/><use xlink:href="#L1_16" x="-350" y="0"/><use xlink:href="#L1_16" x="0" y="0"/><use xlink:href="#L1_16" x="350" y="0"/><use xlink:href="#L1_16" x="-350" y="350"/><use xlink:href="#L1_16" x="0" y="350"/><use xlink:href="#L1_16" x="350" y="350"/></pattern><rect x="0" y="0" width="100%" height="100%" fill="url(#pattern_L1_16)"/></g><g fi:class="KUsePattern" opacity="0.09"><pattern id="pattern_L1_18" width="350" height="350" patternUnits="userSpaceOnUse"><use xlink:href="#L1_18" x="-350" y="-350"/><use xlink:href="#L1_18" x="0" y="-350"/><use xlink:href="#L1_18" x="350" y="-350"/><use xlink:href="#L1_18" x="-350" y="0"/><use xlink:href="#L1_18" x="0" y="0"/><use xlink:href="#L1_18" x="350" y="0"/><use xlink:href="#L1_18" x="-350" y="350"/><use xlink:href="#L1_18" x="0" y="350"/><use xlink:href="#L1_18" x="350" y="350"/></pattern><rect x="0" y="0" width="100%" height="100%" fill="url(#pattern_L1_18)"/></g></svg>