<?xml version="1.0" encoding="iso-8859-1"?>
<!-- Generator: Adobe Illustrator 19.0.0, SVG Export Plug-In . SVG Version: 6.00 Build 0)  -->
<svg version="1.1" id="Layer_1" xmlns="http://www.w3.org/2000/svg" xmlns:xlink="http://www.w3.org/1999/xlink" x="0px" y="0px"
	 viewBox="0 0 295.996 295.996" style="enable-background:new 0 0 295.996 295.996;" xml:space="preserve">
<g>
	<path style="fill:#FFCE00;" d="M270.996,123.998c0-11.334-1.363-22.348-3.907-32.9c-7.269-15.152-17.35-28.708-29.558-39.996
		c-22.391-13.376-48.766-20.666-76.771-19.645C83.492,34.273,23.139,99.196,25.955,176.463c0.413,11.304,2.17,22.239,5.087,32.673
		c6.303,12.01,14.397,22.938,23.934,32.42c21.892,14.189,47.99,22.44,76.022,22.44C208.316,263.996,270.996,201.316,270.996,123.998
		z M196.409,103.581c10.994-0.001,20.992,5.445,26.744,14.568l-13.533,8.533c-2.805-4.447-7.743-7.102-13.21-7.102
		c-5.467,0-10.404,2.655-13.207,7.102l-13.535-8.533C175.419,109.027,185.416,103.581,196.409,103.581z M98.497,98.998
		c8.836,0,16,7.164,16,16s-7.164,16-16,16s-16-7.164-16-16S89.661,98.998,98.497,98.998z M101.943,243.994
		c-4.94,0-9.951-1.112-14.665-3.461c-16.285-8.116-22.933-27.969-14.817-44.254l9.769-19.604
		c-4.309-4.379-8.194-9.191-11.553-14.389l13.437-8.684c12.224,18.915,32.811,31.74,55.072,34.308
		c28.565,3.301,57.098-10.173,72.693-34.308l13.438,8.684c-16.984,26.283-46.649,42.113-77.604,42.113
		c-1.822,0-3.647-0.059-5.476-0.169l-10.706,21.484C125.767,237.288,114.072,243.994,101.943,243.994z"/>
	<path style="fill:#FFB100;" d="M267.089,91.098c2.544,10.553,3.907,21.566,3.907,32.9c0,77.318-62.68,139.998-139.998,139.998
		c-28.032,0-54.131-8.251-76.022-22.44c23.88,23.744,56.766,38.44,93.022,38.44c72.784,0,131.998-59.214,131.998-131.998
		C279.996,127.636,275.358,108.337,267.089,91.098z"/>
	<path style="fill:#FFE454;" d="M160.76,31.457c28.006-1.021,54.381,6.269,76.771,19.645C213.985,29.328,182.521,16,147.998,16
		C75.214,16,16,75.214,16,147.998c0,22.049,5.442,42.849,15.042,61.138c-2.917-10.434-4.674-21.369-5.087-32.673
		C23.139,99.196,83.492,34.273,160.76,31.457z"/>
	<path d="M147.998,0C66.392,0,0,66.392,0,147.998s66.392,147.998,147.998,147.998s147.998-66.392,147.998-147.998
		S229.604,0,147.998,0z M147.998,279.996c-36.257,0-69.143-14.696-93.022-38.44c-9.536-9.482-17.631-20.41-23.934-32.42
		C21.442,190.847,16,170.047,16,147.998C16,75.214,75.214,16,147.998,16c34.523,0,65.987,13.328,89.533,35.102
		c12.208,11.288,22.289,24.844,29.558,39.996c8.27,17.239,12.907,36.538,12.907,56.9
		C279.996,220.782,220.782,279.996,147.998,279.996z"/>
	<circle cx="98.497" cy="114.998" r="16"/>
	<path style="fill:#E36600;" d="M94.785,187.355l-8.004,16.061c-4.18,8.39-0.756,18.617,7.634,22.798
		c8.388,4.181,18.617,0.757,22.798-7.634l8.438-16.934C114.582,198.839,104.091,193.95,94.785,187.355z"/>
	<path d="M142.239,204.232c1.828,0.11,3.653,0.169,5.476,0.169c30.954,0,60.619-15.83,77.604-42.113l-13.438-8.684
		c-15.596,24.135-44.128,37.608-72.693,34.308c-22.262-2.567-42.849-15.393-55.072-34.308l-13.437,8.684
		c3.358,5.197,7.244,10.01,11.553,14.389l-9.769,19.604c-8.115,16.285-1.468,36.138,14.817,44.254
		c4.714,2.349,9.725,3.461,14.665,3.461c12.129,0,23.823-6.706,29.59-18.278L142.239,204.232z M94.415,226.213
		c-8.39-4.181-11.813-14.408-7.634-22.798l8.004-16.061c9.306,6.596,19.797,11.484,30.866,14.291l-8.438,16.934
		C113.032,226.97,102.803,230.394,94.415,226.213z"/>
	<path d="M196.41,119.581c5.467,0,10.405,2.654,13.21,7.102l13.533-8.533c-5.752-9.123-15.75-14.569-26.744-14.568
		c-10.993,0-20.99,5.446-26.741,14.568l13.535,8.533C186.006,122.236,190.943,119.581,196.41,119.581z"/>
</g>
<g>
</g>
<g>
</g>
<g>
</g>
<g>
</g>
<g>
</g>
<g>
</g>
<g>
</g>
<g>
</g>
<g>
</g>
<g>
</g>
<g>
</g>
<g>
</g>
<g>
</g>
<g>
</g>
<g>
</g>
</svg>
